<?xml version="1.0" encoding="UTF-8"?><svg id="Layer_1" xmlns="http://www.w3.org/2000/svg" viewBox="0 0 36 37.4"><defs><style>.cls-1{fill:#fff;}</style></defs><path class="cls-1" d="M18.67,31.08c0-5.66,4.59-10.24,10.24-10.24,2.75,0,5.24,1.09,7.08,2.85V3c0-.8-.3-1.5-.9-2.1-.6-.6-1.3-.9-2.1-.9H3C2.2,0,1.5,.3,.9,.9c-.6,.6-.9,1.3-.9,2.1v30c0,.8,.3,1.5,.9,2.1,.6,.6,1.3,.9,2.1,.9H19.93c-.8-1.46-1.26-3.14-1.26-4.92ZM25.22,7.22c.48-.48,1.08-.72,1.78-.72s1.29,.24,1.78,.72,.72,1.08,.72,1.78-.24,1.29-.72,1.78-1.08,.72-1.78,.72-1.29-.24-1.78-.72-.72-1.08-.72-1.78,.24-1.29,.72-1.78ZM10.78,28.78c-.48,.48-1.08,.72-1.78,.72s-1.29-.24-1.78-.72-.72-1.08-.72-1.78,.24-1.29,.72-1.78,1.08-.72,1.78-.72,1.29,.24,1.78,.72,.72,1.08,.72,1.78-.24,1.29-.72,1.78Zm0-18c-.48,.48-1.08,.72-1.78,.72s-1.29-.24-1.78-.72-.72-1.08-.72-1.78,.24-1.29,.72-1.78,1.08-.72,1.78-.72,1.29,.24,1.78,.72,.72,1.08,.72,1.78-.24,1.29-.72,1.78Zm5.45,9c-.48-.48-.72-1.08-.72-1.78s.24-1.29,.72-1.78,1.08-.72,1.78-.72,1.29,.24,1.78,.72,.72,1.08,.72,1.78-.24,1.29-.72,1.78-1.08,.72-1.78,.72-1.29-.24-1.78-.72Z"/><path class="cls-1" d="M24.84,37.4v-14.08l11.07,7.04-11.07,7.04Z"/></svg>