<?xml version="1.0" encoding="UTF-8"?><svg id="Layer_1" xmlns="http://www.w3.org/2000/svg" viewBox="0 0 22 29.78"><defs><style>.cls-1{fill:none;stroke:#fff;stroke-width:2px;}</style></defs><path d="M0,28V0L22,14,0,28Z"/><g><path class="cls-1" d="M14.58,16.9c-.36,0-.67-.12-.93-.36-.26-.24-.39-.52-.39-.86s.13-.62,.39-.86c.26-.24,.57-.36,.93-.36s.67,.12,.93,.36c.26,.24,.39,.52,.39,.86s-.13,.62-.39,.86c-.26,.24-.57,.36-.93,.36Zm-.09,11.88v-3.98l-1.95-1.65-.76,3.13-4.78-.92,.2-.93,3.59,.67,1.32-6.14-1.8,.78v2.23h-1.08v-2.91l2.96-1.15c.38-.16,.66-.25,.82-.29,.16-.04,.33-.06,.5-.06,.24,0,.45,.05,.64,.14s.35,.24,.48,.42l.76,1.11c.31,.47,.74,.87,1.28,1.21s1.17,.52,1.89,.52v1c-.81,0-1.52-.17-2.16-.52s-1.22-.86-1.76-1.55l-.7,2.63,1.64,1.4v4.84h-1.08Z"/><path d="M14.58,16.9c-.36,0-.67-.12-.93-.36-.26-.24-.39-.52-.39-.86s.13-.62,.39-.86c.26-.24,.57-.36,.93-.36s.67,.12,.93,.36c.26,.24,.39,.52,.39,.86s-.13,.62-.39,.86c-.26,.24-.57,.36-.93,.36Zm-.09,11.88v-3.98l-1.95-1.65-.76,3.13-4.78-.92,.2-.93,3.59,.67,1.32-6.14-1.8,.78v2.23h-1.08v-2.91l2.96-1.15c.38-.16,.66-.25,.82-.29,.16-.04,.33-.06,.5-.06,.24,0,.45,.05,.64,.14s.35,.24,.48,.42l.76,1.11c.31,.47,.74,.87,1.28,1.21s1.17,.52,1.89,.52v1c-.81,0-1.52-.17-2.16-.52s-1.22-.86-1.76-1.55l-.7,2.63,1.64,1.4v4.84h-1.08Z"/></g></svg>